/* XPM */
static char *_6f72e4a2ab54af6814199dfdadfc7e9rJ9nmNMaPsDvMUn1[] = {
/* columns rows colors chars-per-pixel */
"32 32 6 1 ",
"  c #FEE761",
". c #B86F50",
"X c #743F39",
"o c #3F2832",
"O c #124E89",
"+ c white",
/* pixels */
"                                ",
"                                ",
"                                ",
"                                ",
"                                ",
"                                ",
"                                ",
"                                ",
"                                ",
"                                ",
"                                ",
"                                ",
"   ......................       ",
"   .XXXXXooXXXXXXXooXXXXX...    ",
"   .XXXXXXXoXXXXXXXXoXXXXXXX..  ",
"   .X...X..oX....X..oX...XXXXX. ",
"   .X...X..oX....X..oX........  ",
"   .X...X..oX....X..oX......X   ",
"   .X...X..oX....X..oXX...XX    ",
"   .....................XXOO    ",
"    XXXXXXXXXXXXXXXXXXXXXOO     ",
"    OXXXXXXXXXXXXXXXXXXOOO      ",
"    OOOOOOOOOOOOOOOOOOOOO       ",
"     OOOOOOOOOOOOOOOOOO         ",
"                                ",
"                                ",
"                                ",
"                                ",
"                                ",
"                                ",
"                                ",
"                                "
};
