/* XPM */
static char *f3340e31d4e449f5ddbb49b63c0b57107RIozNlrPclgh03W[] = {
/* columns rows colors chars-per-pixel */
"32 32 4 1 ",
"  c #FFF200",
". c #1F0E01",
"X c #6B341C",
"o c #9E5026",
/* pixels */
"                                ",
"                                ",
"                                ",
"                                ",
"                                ",
"                                ",
"                                ",
"                                ",
"                                ",
"                                ",
"                     X.         ",
"                    Xo.         ",
"                   Xo.          ",
"                  Xo.           ",
"                 Xo.            ",
"                Xo.             ",
"               Xo.              ",
"              Xo.               ",
"             Xo.                ",
"            Xo.                 ",
"           Xo.                  ",
"          Xo.                   ",
"          ..                    ",
"                                ",
"                                ",
"                                ",
"                                ",
"                                ",
"                                ",
"                                ",
"                                ",
"                                "
};
