/* XPM */
static char *_9b51a32e0c94538f5b65fac9fdab81aWcOVox96RfWIO139[] = {
/* columns rows colors chars-per-pixel */
"32 32 32 1 ",
"  c #FEE761",  /* Arrière-plan modifié */
". c black",
"X c #030000",
"o c #000201",
"O c #000002",
"+ c #000004",
"@ c gray4",
"# c #161616",
"$ c #3E2B1F",
"% c #7F0000",
"& c #563120",
"* c #7A462E",
"= c #194D72",
"- c #840000",
"; c #860000",
": c #8A0000",
"> c #8C0000",
", c #8D0000",
"< c #920000",
"1 c #980000",
"2 c #9C0101",
"3 c #A30101",
"4 c #AF1912",
"5 c #D3AC00",
"6 c #FFB27F",
"7 c #1F608E",
"8 c #FFC0A3",
"9 c #F2EDF0",
"0 c gray95",
"q c gray97",
"w c #FFF9FD",
"e c white",
/* pixels */
"                                ",
"                                ",
"                                ",
"                                ",
"                                ",
"                                ",
"                                ",
"                                ",
"                                ",
"                                ",
"            -%%%%%%>            ",
"           %%%%%%%%%%:          ",
"     21  %%%%%%%%%%%%%>         ",
"       %%%%%%%%%%%%%%%%         ",
"      -%%%%%%%%%%%%%%%%         ",
"     3  :%%666666666%%%         ",
"         <6688888886664         ",
"          6688X886X888          ",
"          6886X886X888          ",
"          688868886888          ",
"          qqqqqqqqqqqq          ",
"          qqqqq0XXqqqq          ",
"          #qqqq000qqq@          ",
"          XXqqqqqqqqXX          ",
"          9X===68e==X9          ",
"          9X=7968ww7X9          ",
"          6X=799www7+6          ",
"          6X==999ww=X6          ",
"           $&&&55&&&            ",
"            &*&&****            ",
"            &**  ***            ",
"                                "
};